<?xml version="1.0" encoding="UTF-8" standalone="no" ?>
<!DOCTYPE svg PUBLIC "-//W3C//DTD SVG 1.1//EN" "http://www.w3.org/Graphics/SVG/1.1/DTD/svg11.dtd">
<svg xmlns="http://www.w3.org/2000/svg" xmlns:xlink="http://www.w3.org/1999/xlink" version="1.1" width="480" height="480" viewBox="0 0 480 480" xml:space="preserve">
<desc>Created with Fabric.js 3.6.6</desc>
<defs>
</defs>
<g transform="matrix(1 0 0 1 240 240)"  >
<g style=""   >
		<g transform="matrix(1.33 0 0 -1.33 0 0)" id="path20" clip-path="url(#CLIPPATH_9)"  >
<clipPath id="CLIPPATH_9" >
	<path transform="matrix(1 0 0 1 0 0) translate(-252, -252)" id="path14" d="M 0 504 H 504 V 0 H 0 Z" stroke-linecap="round" />
</clipPath>
<path style="stroke: none; stroke-width: 1; stroke-dasharray: none; stroke-linecap: butt; stroke-dashoffset: 0; stroke-linejoin: miter; stroke-miterlimit: 4; fill: rgb(227,24,55); fill-rule: nonzero; opacity: 1;"  transform=" translate(176.4, 0)" d="m 0 0 c 0 -97.423 -78.978 -176.4 -176.4 -176.4 c -97.423 0 -176.401 78.977 -176.401 176.4 c 0 97.423 78.978 176.399 176.401 176.399 C -78.978 176.399 0 97.423 0 0" stroke-linecap="round" />
</g>
		<g transform="matrix(1.33 0 0 -1.33 -189.45 -26.6)" id="path24" clip-path="url(#CLIPPATH_10)"  >
<clipPath id="CLIPPATH_10" >
	<path transform="matrix(1 0 0 1 142.09 -19.95) translate(-252, -252)" id="path14" d="M 0 504 H 504 V 0 H 0 Z" stroke-linecap="round" />
</clipPath>
<path style="stroke: none; stroke-width: 1; stroke-dasharray: none; stroke-linecap: butt; stroke-dashoffset: 0; stroke-linejoin: miter; stroke-miterlimit: 4; fill: rgb(255,255,255); fill-rule: nonzero; opacity: 1;"  transform=" translate(5.04, 2.16)" d="M 0 0 L 0.77 5.269 L 4.281 4.754 L 2.184 -9.592 l -3.512 0.514 l 0.769 5.268 l -13.8 2.019 l 0.554 3.809 z" stroke-linecap="round" />
</g>
		<g transform="matrix(1.33 0 0 -1.33 -192 1.13)" id="path28" clip-path="url(#CLIPPATH_11)"  >
<clipPath id="CLIPPATH_11" >
	<path transform="matrix(1 0 0 1 144 0.85) translate(-252, -252)" id="path14" d="M 0 504 H 504 V 0 H 0 Z" stroke-linecap="round" />
</clipPath>
<path style="stroke: none; stroke-width: 1; stroke-dasharray: none; stroke-linecap: butt; stroke-dashoffset: 0; stroke-linejoin: miter; stroke-miterlimit: 4; fill: rgb(255,255,255); fill-rule: nonzero; opacity: 1;"  transform=" translate(8.73, 6.69)" d="m 0 0 l 0.035 -13.2 l -3.424 -0.01 l -0.025 9.376 l -3.551 -0.01 l 0.024 -8.25 l -3.426 -0.01 l -0.022 8.25 l -3.675 -0.009 l 0.025 -9.5 l -3.424 -0.009 l -0.037 13.324 z" stroke-linecap="round" />
</g>
		<g transform="matrix(1.33 0 0 -1.33 -189.81 29.23)" id="path32" clip-path="url(#CLIPPATH_12)"  >
<clipPath id="CLIPPATH_12" >
	<path transform="matrix(1 0 0 1 142.36 21.92) translate(-252, -252)" id="path14" d="M 0 504 H 504 V 0 H 0 Z" stroke-linecap="round" />
</clipPath>
<path style="stroke: none; stroke-width: 1; stroke-dasharray: none; stroke-linecap: butt; stroke-dashoffset: 0; stroke-linejoin: miter; stroke-miterlimit: 4; fill: rgb(255,255,255); fill-rule: nonzero; opacity: 1;"  transform=" translate(-7.2, 6.25)" d="M 0 0 L 3.035 -1.838 C 1.988 -3.591 1.42 -5.347 1.721 -7.323 C 1.957 -8.881 2.719 -9.726 3.73 -9.571 l 0.051 0.008 c 0.963 0.144 1.367 0.813 1.67 3.818 c 0.36 3.62 0.981 6.016 4.416 6.539 l 0.051 0.007 c 3.137 0.477 5.598 -1.728 6.135 -5.262 c 0.383 -2.521 -0.08 -4.792 -1.223 -6.762 l -3.168 1.541 c 0.83 1.696 1.244 3.301 1.022 4.759 c -0.223 1.457 -1.006 2.122 -1.846 1.995 L 10.789 -2.935 C 9.652 -3.108 9.395 -3.906 9.082 -7.014 C 8.701 -10.662 7.742 -12.831 4.727 -13.29 l -0.049 -0.008 c -3.436 -0.521 -5.762 1.806 -6.33 5.537 C -2.051 -5.141 -1.539 -2.357 0 0" stroke-linecap="round" />
</g>
		<g transform="matrix(1.33 0 0 -1.33 -185.15 56.78)" id="path36" clip-path="url(#CLIPPATH_13)"  >
<clipPath id="CLIPPATH_13" >
	<path transform="matrix(1 0 0 1 138.86 42.58) translate(-252, -252)" id="path14" d="M 0 504 H 504 V 0 H 0 Z" stroke-linecap="round" />
</clipPath>
<path style="stroke: none; stroke-width: 1; stroke-dasharray: none; stroke-linecap: butt; stroke-dashoffset: 0; stroke-linejoin: miter; stroke-miterlimit: 4; fill: rgb(255,255,255); fill-rule: nonzero; opacity: 1;"  transform=" translate(7.81, 8.56)" d="m 0 0 l 1.119 -3.684 l -13.394 -4.072 l 2.537 -8.348 l -3.35 -1.018 l -3.656 12.031 z" stroke-linecap="round" />
</g>
		<g transform="matrix(1.33 0 0 -1.33 -174.82 88.44)" id="path40" clip-path="url(#CLIPPATH_14)"  >
<clipPath id="CLIPPATH_14" >
	<path transform="matrix(1 0 0 1 131.12 66.33) translate(-252, -252)" id="path14" d="M 0 504 H 504 V 0 H 0 Z" stroke-linecap="round" />
</clipPath>
<path style="stroke: none; stroke-width: 1; stroke-dasharray: none; stroke-linecap: butt; stroke-dashoffset: 0; stroke-linejoin: miter; stroke-miterlimit: 4; fill: rgb(255,255,255); fill-rule: nonzero; opacity: 1;"  transform=" translate(1.3, 0.67)" d="M 0 0 L 4.084 4.576 L -2.035 4.181 Z M 7.488 8.151 L 9.043 4.96 L -3.52 -9.5 l -1.761 3.618 l 2.828 3.157 l -3.24 6.654 l -4.231 -0.282 l -1.717 3.529 z" stroke-linecap="round" />
</g>
		<g transform="matrix(1.33 0 0 -1.33 -146.43 120.71)" id="path44" clip-path="url(#CLIPPATH_15)"  >
<clipPath id="CLIPPATH_15" >
	<path transform="matrix(1 0 0 1 109.82 90.53) translate(-252, -252)" id="path14" d="M 0 504 H 504 V 0 H 0 Z" stroke-linecap="round" />
</clipPath>
<path style="stroke: none; stroke-width: 1; stroke-dasharray: none; stroke-linecap: butt; stroke-dashoffset: 0; stroke-linejoin: miter; stroke-miterlimit: 4; fill: rgb(255,255,255); fill-rule: nonzero; opacity: 1;"  transform=" translate(2.4, 8.12)" d="m 0 0 l 8.59 -10.191 l -2.676 -2.256 l -6.107 7.247 l -2.85 -2.403 l 5.383 -6.384 l -2.676 -2.258 l -5.383 6.387 l -5.181 -4.368 l -2.481 2.945 z" stroke-linecap="round" />
</g>
		<g transform="matrix(1.33 0 0 -1.33 -131.01 146.99)" id="path48" clip-path="url(#CLIPPATH_16)"  >
<clipPath id="CLIPPATH_16" >
	<path transform="matrix(1 0 0 1 98.25 110.25) translate(-252, -252)" id="path14" d="M 0 504 H 504 V 0 H 0 Z" stroke-linecap="round" />
</clipPath>
<path style="stroke: none; stroke-width: 1; stroke-dasharray: none; stroke-linecap: butt; stroke-dashoffset: 0; stroke-linejoin: miter; stroke-miterlimit: 4; fill: rgb(255,255,255); fill-rule: nonzero; opacity: 1;"  transform=" translate(3.52, -0.13)" d="M 0 0 L 2.031 5.787 L -3.477 3.089 Z M 3.813 10.39 L 6.467 8.031 L 0.365 -10.125 L -2.643 -7.451 L -1.23 -3.455 L -6.762 1.46 L -10.566 -0.41 L -13.5 2.197 Z" stroke-linecap="round" />
</g>
		<g transform="matrix(1.33 0 0 -1.33 -101.31 163.15)" id="path52" clip-path="url(#CLIPPATH_17)"  >
<clipPath id="CLIPPATH_17" >
	<path transform="matrix(1 0 0 1 75.98 122.37) translate(-252, -252)" id="path14" d="M 0 504 H 504 V 0 H 0 Z" stroke-linecap="round" />
</clipPath>
<path style="stroke: none; stroke-width: 1; stroke-dasharray: none; stroke-linecap: butt; stroke-dashoffset: 0; stroke-linejoin: miter; stroke-miterlimit: 4; fill: rgb(255,255,255); fill-rule: nonzero; opacity: 1;"  transform=" translate(-1.67, 11.34)" d="m 0 0 l 3.271 -2.031 l -3.654 -5.882 l 6.029 -3.747 l 3.655 5.881 l 3.269 -2.032 l -9.234 -14.862 l -3.27 2.031 l 3.707 5.967 l -6.029 3.747 l -3.707 -5.967 l -3.271 2.033 z" stroke-linecap="round" />
</g>
		<g transform="matrix(1.33 0 0 -1.33 -74.08 177.78)" id="path56" clip-path="url(#CLIPPATH_18)"  >
<clipPath id="CLIPPATH_18" >
	<path transform="matrix(1 0 0 1 55.56 133.33) translate(-252, -252)" id="path14" d="M 0 504 H 504 V 0 H 0 Z" stroke-linecap="round" />
</clipPath>
<path style="stroke: none; stroke-width: 1; stroke-dasharray: none; stroke-linecap: butt; stroke-dashoffset: 0; stroke-linejoin: miter; stroke-miterlimit: 4; fill: rgb(255,255,255); fill-rule: nonzero; opacity: 1;"  transform=" translate(1.36, 0.16)" d="M 0 0 C 1.732 -0.716 3.109 -0.201 3.672 1.162 L 3.691 1.208 C 4.32 2.732 3.582 3.957 1.848 4.674 l -3.535 1.46 l -1.92 -4.647 z M -3.922 10.815 L 3.475 7.764 C 5.531 6.914 6.889 5.678 7.514 4.176 C 8.041 2.902 8.002 1.43 7.373 -0.095 L 7.354 -0.142 C 6.277 -2.754 4.189 -3.813 1.816 -3.726 l 1.569 -7.411 l -4.16 1.718 l -1.332 6.608 l -2.797 1.155 l -2.137 -5.179 l -3.559 1.47 z" stroke-linecap="round" />
</g>
		<g transform="matrix(1.33 0 0 -1.33 -44.59 186.78)" id="path60" clip-path="url(#CLIPPATH_19)"  >
<clipPath id="CLIPPATH_19" >
	<path transform="matrix(1 0 0 1 33.44 140.09) translate(-252, -252)" id="path14" d="M 0 504 H 504 V 0 H 0 Z" stroke-linecap="round" />
</clipPath>
<path style="stroke: none; stroke-width: 1; stroke-dasharray: none; stroke-linecap: butt; stroke-dashoffset: 0; stroke-linejoin: miter; stroke-miterlimit: 4; fill: rgb(255,255,255); fill-rule: nonzero; opacity: 1;"  transform=" translate(-4.38, 10.06)" d="M 0 0 L 12.838 -3.078 L 12.039 -6.41 L 2.922 -4.223 L 2.094 -7.676 L 10.117 -9.6 L 9.318 -12.931 L 1.295 -11.007 L 0.437 -14.581 L 9.676 -16.796 L 8.877 -20.127 L -4.08 -17.02 Z" stroke-linecap="round" />
</g>
		<g transform="matrix(1.33 0 0 -1.33 -15.34 191.44)" id="path64" clip-path="url(#CLIPPATH_20)"  >
<clipPath id="CLIPPATH_20" >
	<path transform="matrix(1 0 0 1 11.51 143.58) translate(-252, -252)" id="path14" d="M 0 504 H 504 V 0 H 0 Z" stroke-linecap="round" />
</clipPath>
<path style="stroke: none; stroke-width: 1; stroke-dasharray: none; stroke-linecap: butt; stroke-dashoffset: 0; stroke-linejoin: miter; stroke-miterlimit: 4; fill: rgb(255,255,255); fill-rule: nonzero; opacity: 1;"  transform=" translate(0.69, 0.23)" d="M 0 0 C 1.867 -0.152 3.02 0.759 3.139 2.229 L 3.143 2.278 C 3.277 3.924 2.199 4.863 0.33 5.015 L -3.482 5.324 L -3.889 0.316 Z M -7.039 9.099 L 0.936 8.453 C 3.152 8.272 4.822 7.51 5.875 6.271 C 6.768 5.221 7.18 3.808 7.047 2.162 L 7.043 2.112 C 6.814 -0.703 5.15 -2.349 2.865 -2.991 l 3.756 -6.575 l -4.484 0.363 l -3.285 5.885 l -3.016 0.245 l -0.451 -5.582 l -3.838 0.31 z" stroke-linecap="round" />
</g>
		<g transform="matrix(1.33 0 0 -1.33 31.56 188.74)" id="path68" clip-path="url(#CLIPPATH_21)"  >
<clipPath id="CLIPPATH_21" >
	<path transform="matrix(1 0 0 1 -23.67 141.55) translate(-252, -252)" id="path14" d="M 0 504 H 504 V 0 H 0 Z" stroke-linecap="round" />
</clipPath>
<path style="stroke: none; stroke-width: 1; stroke-dasharray: none; stroke-linecap: butt; stroke-dashoffset: 0; stroke-linejoin: miter; stroke-miterlimit: 4; fill: rgb(255,255,255); fill-rule: nonzero; opacity: 1;"  transform=" translate(-6.76, -2.92)" d="m 0 0 l -1.67 9.856 l 3.797 0.643 l 1.652 -9.757 c 0.475 -2.809 2.125 -4.025 4.442 -3.633 c 2.316 0.392 3.484 2.036 3.019 4.77 L 9.566 11.76 L 13.361 12.402 L 15.01 2.67 C 15.895 -2.554 13.396 -5.614 8.764 -6.398 C 4.133 -7.184 0.859 -5.075 0 0" stroke-linecap="round" />
</g>
		<g transform="matrix(1.33 0 0 -1.33 63.64 181.2)" id="path72" clip-path="url(#CLIPPATH_22)"  >
<clipPath id="CLIPPATH_22" >
	<path transform="matrix(1 0 0 1 -47.73 135.9) translate(-252, -252)" id="path14" d="M 0 504 H 504 V 0 H 0 Z" stroke-linecap="round" />
</clipPath>
<path style="stroke: none; stroke-width: 1; stroke-dasharray: none; stroke-linecap: butt; stroke-dashoffset: 0; stroke-linejoin: miter; stroke-miterlimit: 4; fill: rgb(255,255,255); fill-rule: nonzero; opacity: 1;"  transform=" translate(-10.23, 5.68)" d="M 0 0 L 3.35 1.176 L 14.656 -6.278 L 11.09 3.89 l 3.584 1.258 l 5.795 -16.515 l -3.092 -1.084 l -11.68 7.692 l 3.684 -10.498 l -3.588 -1.259 z" stroke-linecap="round" />
</g>
		<g transform="matrix(1.33 0 0 -1.33 91.94 169.57)" id="path76" clip-path="url(#CLIPPATH_23)"  >
<clipPath id="CLIPPATH_23" >
	<path transform="matrix(1 0 0 1 -68.96 127.18) translate(-252, -252)" id="path14" d="M 0 504 H 504 V 0 H 0 Z" stroke-linecap="round" />
</clipPath>
<path style="stroke: none; stroke-width: 1; stroke-dasharray: none; stroke-linecap: butt; stroke-dashoffset: 0; stroke-linejoin: miter; stroke-miterlimit: 4; fill: rgb(255,255,255); fill-rule: nonzero; opacity: 1;"  transform=" translate(3.06, -3.62)" d="M 0 0 C 2.752 1.537 3.57 4.428 2.059 7.134 L 2.033 7.178 C 0.52 9.883 -2.395 10.745 -5.145 9.209 L -7.74 7.758 L -2.596 -1.451 Z m -12.797 8.913 l 5.959 3.329 c 4.801 2.682 9.957 1.24 12.359 -3.057 L 5.547 9.141 C 7.947 4.842 6.498 -0.351 1.697 -3.033 L -4.26 -6.361 Z" stroke-linecap="round" />
</g>
		<g transform="matrix(1.33 0 0 -1.33 128.5 139.27)" id="path80" clip-path="url(#CLIPPATH_24)"  >
<clipPath id="CLIPPATH_24" >
	<path transform="matrix(1 0 0 1 -96.37 104.45) translate(-252, -252)" id="path14" d="M 0 504 H 504 V 0 H 0 Z" stroke-linecap="round" />
</clipPath>
<path style="stroke: none; stroke-width: 1; stroke-dasharray: none; stroke-linecap: butt; stroke-dashoffset: 0; stroke-linejoin: miter; stroke-miterlimit: 4; fill: rgb(255,255,255); fill-rule: nonzero; opacity: 1;"  transform=" translate(-8.11, 1.73)" d="m 0 0 l 9.635 9.205 l 2.42 -2.531 l -6.852 -6.546 l 2.572 -2.694 l 6.038 5.769 l 2.417 -2.53 l -6.037 -5.771 l 4.68 -4.898 l -2.783 -2.659 z" stroke-linecap="round" />
</g>
		<g transform="matrix(1.33 0 0 -1.33 152.08 119.02)" id="path84" clip-path="url(#CLIPPATH_25)"  >
<clipPath id="CLIPPATH_25" >
	<path transform="matrix(1 0 0 1 -114.06 89.26) translate(-252, -252)" id="path14" d="M 0 504 H 504 V 0 H 0 Z" stroke-linecap="round" />
</clipPath>
<path style="stroke: none; stroke-width: 1; stroke-dasharray: none; stroke-linecap: butt; stroke-dashoffset: 0; stroke-linejoin: miter; stroke-miterlimit: 4; fill: rgb(255,255,255); fill-rule: nonzero; opacity: 1;"  transform=" translate(-0.08, 1.63)" d="m 0 0 c 1.154 1.479 1.027 2.941 -0.137 3.849 l -0.039 0.03 C -1.477 4.894 -2.854 4.512 -4.008 3.032 l -2.351 -3.015 l 3.961 -3.091 z m -11.469 -0.882 l 4.92 6.309 C -5.18 7.181 -3.625 8.156 -2.01 8.356 C -0.641 8.525 0.766 8.093 2.066 7.078 L 2.105 7.048 C 4.334 5.31 4.793 3.016 4.076 0.753 L 11.635 0.279 L 8.865 -3.27 L 2.143 -2.781 L 0.283 -5.167 L 4.699 -8.61 L 2.33 -11.646 Z" stroke-linecap="round" />
</g>
		<g transform="matrix(1.33 0 0 -1.33 168.29 92.62)" id="path88" clip-path="url(#CLIPPATH_26)"  >
<clipPath id="CLIPPATH_26" >
	<path transform="matrix(1 0 0 1 -126.22 69.46) translate(-252, -252)" id="path14" d="M 0 504 H 504 V 0 H 0 Z" stroke-linecap="round" />
</clipPath>
<path style="stroke: none; stroke-width: 1; stroke-dasharray: none; stroke-linecap: butt; stroke-dashoffset: 0; stroke-linejoin: miter; stroke-miterlimit: 4; fill: rgb(255,255,255); fill-rule: nonzero; opacity: 1;"  transform=" translate(-10.88, -1.54)" d="M 0 0 L 6.389 11.548 L 9.387 9.89 L 4.846 1.688 L 7.951 -0.03 l 3.996 7.217 l 2.994 -1.658 l -3.994 -7.217 l 3.215 -1.78 l 4.6 8.312 l 2.998 -1.659 l -6.453 -11.658 z" stroke-linecap="round" />
</g>
		<g transform="matrix(1.33 0 0 -1.33 179.43 64.07)" id="path92" clip-path="url(#CLIPPATH_27)"  >
<clipPath id="CLIPPATH_27" >
	<path transform="matrix(1 0 0 1 -134.58 48.05) translate(-252, -252)" id="path14" d="M 0 504 H 504 V 0 H 0 Z" stroke-linecap="round" />
</clipPath>
<path style="stroke: none; stroke-width: 1; stroke-dasharray: none; stroke-linecap: butt; stroke-dashoffset: 0; stroke-linejoin: miter; stroke-miterlimit: 4; fill: rgb(255,255,255); fill-rule: nonzero; opacity: 1;"  transform=" translate(-0.55, -8.54)" d="M 0 0 L -9.408 3.396 L -8.102 7.018 L 1.213 3.657 C 3.895 2.689 5.766 3.53 6.564 5.741 C 7.361 7.952 6.504 9.776 3.895 10.718 l -9.434 3.404 l 1.307 3.622 l 9.291 -3.352 C 10.047 12.592 11.482 8.91 9.887 4.489 C 8.291 0.065 4.846 -1.748 0 0" stroke-linecap="round" />
</g>
		<g transform="matrix(1.33 0 0 -1.33 188.97 34.03)" id="path96" clip-path="url(#CLIPPATH_28)"  >
<clipPath id="CLIPPATH_28" >
	<path transform="matrix(1 0 0 1 -141.72 25.52) translate(-252, -252)" id="path14" d="M 0 504 H 504 V 0 H 0 Z" stroke-linecap="round" />
</clipPath>
<path style="stroke: none; stroke-width: 1; stroke-dasharray: none; stroke-linecap: butt; stroke-dashoffset: 0; stroke-linejoin: miter; stroke-miterlimit: 4; fill: rgb(255,255,255); fill-rule: nonzero; opacity: 1;"  transform=" translate(-9.98, -6.11)" d="M 0 0 L 0.625 3.494 L 12.68 9.668 L 2.072 11.567 L 2.74 15.309 L 19.969 12.225 L 19.393 9.001 L 6.945 2.617 L 17.898 0.656 L 17.23 -3.085 Z" stroke-linecap="round" />
</g>
		<g transform="matrix(1.33 0 0 -1.33 191.95 0.85)" id="path100" clip-path="url(#CLIPPATH_29)"  >
<clipPath id="CLIPPATH_29" >
	<path transform="matrix(1 0 0 1 -143.96 0.64) translate(-252, -252)" id="path14" d="M 0 504 H 504 V 0 H 0 Z" stroke-linecap="round" />
</clipPath>
<path style="stroke: none; stroke-width: 1; stroke-dasharray: none; stroke-linecap: butt; stroke-dashoffset: 0; stroke-linejoin: miter; stroke-miterlimit: 4; fill: rgb(255,255,255); fill-rule: nonzero; opacity: 1;"  transform=" translate(5.3, -1.25)" d="m 0 0 c 0.023 3.151 -2.088 5.292 -5.187 5.313 l -0.049 0.001 c -3.102 0.022 -5.293 -2.088 -5.315 -5.24 L -10.572 -2.9 L -0.02 -2.975 Z m -14.074 -6.728 l 0.047 6.828 c 0.039 5.501 3.841 9.275 8.769 9.241 L -5.209 9.34 C -0.283 9.305 3.516 5.477 3.479 -0.024 L 3.43 -6.851 Z" stroke-linecap="round" />
</g>
		<g transform="matrix(1.33 0 0 -1.33 189.69 -29.91)" id="path104" clip-path="url(#CLIPPATH_30)"  >
<clipPath id="CLIPPATH_30" >
	<path transform="matrix(1 0 0 1 -142.27 -22.43) translate(-252, -252)" id="path14" d="M 0 504 H 504 V 0 H 0 Z" stroke-linecap="round" />
</clipPath>
<path style="stroke: none; stroke-width: 1; stroke-dasharray: none; stroke-linecap: butt; stroke-dashoffset: 0; stroke-linejoin: miter; stroke-miterlimit: 4; fill: rgb(255,255,255); fill-rule: nonzero; opacity: 1;"  transform=" translate(-7.64, -7.91)" d="m 0 0 l -2.01 13.042 l 3.385 0.521 l 1.426 -9.262 l 3.508 0.54 l -1.256 8.152 l 3.385 0.522 l 1.255 -8.153 l 3.631 0.559 l -1.445 9.388 l 3.385 0.521 l 2.027 -13.167 z" stroke-linecap="round" />
</g>
		<g transform="matrix(1.33 0 0 -1.33 -148.56 -127.1)" id="path108" clip-path="url(#CLIPPATH_31)"  >
<clipPath id="CLIPPATH_31" >
	<path transform="matrix(1 0 0 1 111.42 -95.33) translate(-252, -252)" id="path14" d="M 0 504 H 504 V 0 H 0 Z" stroke-linecap="round" />
</clipPath>
<path style="stroke: none; stroke-width: 1; stroke-dasharray: none; stroke-linecap: butt; stroke-dashoffset: 0; stroke-linejoin: miter; stroke-miterlimit: 4; fill: rgb(255,255,255); fill-rule: nonzero; opacity: 1;"  transform=" translate(-3.48, -0.12)" d="M 0 0 L -3.455 -4.053 L -6.156 -1.75 L 3.251 9.286 L 5.953 6.982 L 2.498 2.93 L 13.115 -6.121 L 10.618 -9.051 Z" stroke-linecap="round" />
</g>
		<g transform="matrix(1.33 0 0 -1.33 -125.75 -145.05)" id="path112" clip-path="url(#CLIPPATH_32)"  >
<clipPath id="CLIPPATH_32" >
	<path transform="matrix(1 0 0 1 94.31 -108.79) translate(-252, -252)" id="path14" d="M 0 504 H 504 V 0 H 0 Z" stroke-linecap="round" />
</clipPath>
<path style="stroke: none; stroke-width: 1; stroke-dasharray: none; stroke-linecap: butt; stroke-dashoffset: 0; stroke-linejoin: miter; stroke-miterlimit: 4; fill: rgb(255,255,255); fill-rule: nonzero; opacity: 1;"  transform=" translate(-10.78, 2.25)" d="m 0 0 l 9.942 8.686 l 2.253 -2.581 l -7.06 -6.167 l 2.335 -2.674 l 6.214 5.427 l 2.254 -2.579 l -6.214 -5.428 l 2.418 -2.768 l 7.155 6.25 l 2.254 -2.579 l -10.036 -8.767 z" stroke-linecap="round" />
</g>
		<g transform="matrix(1.33 0 0 -1.33 -103.17 -161.81)" id="path116" clip-path="url(#CLIPPATH_33)"  >
<clipPath id="CLIPPATH_33" >
	<path transform="matrix(1 0 0 1 77.38 -121.36) translate(-252, -252)" id="path14" d="M 0 504 H 504 V 0 H 0 Z" stroke-linecap="round" />
</clipPath>
<path style="stroke: none; stroke-width: 1; stroke-dasharray: none; stroke-linecap: butt; stroke-dashoffset: 0; stroke-linejoin: miter; stroke-miterlimit: 4; fill: rgb(255,255,255); fill-rule: nonzero; opacity: 1;"  transform=" translate(-2.78, -9.02)" d="M 0 0 L 0.447 3.521 C 2.475 3.275 4.31 3.471 5.994 4.548 C 7.32 5.396 7.783 6.436 7.231 7.299 L 7.204 7.341 C 6.679 8.162 5.904 8.26 3.036 7.314 C -0.418 6.174 -2.859 5.769 -4.732 8.695 L -4.76 8.737 c -1.711 2.675 -0.694 5.818 2.317 7.744 c 2.147 1.374 4.411 1.873 6.673 1.629 L 4.109 14.59 C 2.224 14.66 0.589 14.386 -0.653 13.591 C -1.896 12.796 -2.185 11.81 -1.727 11.094 l 0.028 -0.042 c 0.62 -0.969 1.453 -0.88 4.419 0.096 c 3.488 1.135 5.86 1.139 7.504 -1.43 L 10.251 9.676 C 12.124 6.749 10.942 3.678 7.763 1.644 C 5.531 0.216 2.779 -0.447 0 0" stroke-linecap="round" />
</g>
		<g transform="matrix(1.33 0 0 -1.33 -78.29 -172.98)" id="path120" clip-path="url(#CLIPPATH_34)"  >
<clipPath id="CLIPPATH_34" >
	<path transform="matrix(1 0 0 1 58.71 -129.73) translate(-252, -252)" id="path14" d="M 0 504 H 504 V 0 H 0 Z" stroke-linecap="round" />
</clipPath>
<path style="stroke: none; stroke-width: 1; stroke-dasharray: none; stroke-linecap: butt; stroke-dashoffset: 0; stroke-linejoin: miter; stroke-miterlimit: 4; fill: rgb(255,255,255); fill-rule: nonzero; opacity: 1;"  transform=" translate(-9.33, 7.18)" d="m 0 0 l 3.508 1.584 l 5.76 -12.758 l 7.95 3.59 l 1.44 -3.189 l -11.459 -5.174 z" stroke-linecap="round" />
</g>
		<g transform="matrix(1.33 0 0 -1.33 -47.68 -183.97)" id="path124" clip-path="url(#CLIPPATH_35)"  >
<clipPath id="CLIPPATH_35" >
	<path transform="matrix(1 0 0 1 35.76 -137.98) translate(-252, -252)" id="path14" d="M 0 504 H 504 V 0 H 0 Z" stroke-linecap="round" />
</clipPath>
<path style="stroke: none; stroke-width: 1; stroke-dasharray: none; stroke-linecap: butt; stroke-dashoffset: 0; stroke-linejoin: miter; stroke-miterlimit: 4; fill: rgb(255,255,255); fill-rule: nonzero; opacity: 1;"  transform=" translate(0.26, 0.15)" d="M 0 0 L -3.74 4.863 L -4.487 -1.226 Z M -6.624 8.871 L -3.198 9.808 L 8.687 -5.223 L 4.802 -6.284 L 2.224 -2.919 L -4.917 -4.87 l -0.51 -4.209 l -3.787 -1.035 z" stroke-linecap="round" />
</g>
		<g transform="matrix(1.33 0 0 -1.33 -0.69 -192)" id="path128" clip-path="url(#CLIPPATH_36)"  >
<clipPath id="CLIPPATH_36" >
	<path transform="matrix(1 0 0 1 0.52 -144) translate(-252, -252)" id="path14" d="M 0 504 H 504 V 0 H 0 Z" stroke-linecap="round" />
</clipPath>
<path style="stroke: none; stroke-width: 1; stroke-dasharray: none; stroke-linecap: butt; stroke-dashoffset: 0; stroke-linejoin: miter; stroke-miterlimit: 4; fill: rgb(255,255,255); fill-rule: nonzero; opacity: 1;"  transform=" translate(5.27, -0.03)" d="m 0 0 v 0.05 c -0.011 2.999 -2.22 5.49 -5.319 5.478 c -3.099 -0.01 -5.24 -2.467 -5.229 -5.466 V 0.011 c 0.012 -2.999 2.22 -5.49 5.319 -5.479 C -2.13 -5.457 0.011 -2.999 0 0 m -14.571 -0.054 v 0.051 c -0.019 4.973 3.89 9.062 9.289 9.081 c 5.398 0.021 9.288 -3.989 9.305 -8.964 v -0.05 c 0.019 -4.973 -3.89 -9.061 -9.289 -9.082 c -5.398 -0.019 -9.288 3.991 -9.305 8.964" stroke-linecap="round" />
</g>
		<g transform="matrix(1.33 0 0 -1.33 39.54 -189.06)" id="path132" clip-path="url(#CLIPPATH_37)"  >
<clipPath id="CLIPPATH_37" >
	<path transform="matrix(1 0 0 1 -29.65 -141.79) translate(-252, -252)" id="path14" d="M 0 504 H 504 V 0 H 0 Z" stroke-linecap="round" />
</clipPath>
<path style="stroke: none; stroke-width: 1; stroke-dasharray: none; stroke-linecap: butt; stroke-dashoffset: 0; stroke-linejoin: miter; stroke-miterlimit: 4; fill: rgb(255,255,255); fill-rule: nonzero; opacity: 1;"  transform=" translate(-13.03, 10.64)" d="m 0 0 l 4.049 -0.799 l 1.264 -12.332 l 6.155 10.92 l 3.239 -0.639 l 1.55 -12.437 l 5.85 10.928 l 3.951 -0.779 l -9.275 -16.141 l -3.288 0.648 l -1.661 12.002 l -6.092 -10.474 l -3.288 0.648 z" stroke-linecap="round" />
</g>
		<g transform="matrix(1.33 0 0 -1.33 74.07 -177.19)" id="path136" clip-path="url(#CLIPPATH_38)"  >
<clipPath id="CLIPPATH_38" >
	<path transform="matrix(1 0 0 1 -55.55 -132.9) translate(-252, -252)" id="path14" d="M 0 504 H 504 V 0 H 0 Z" stroke-linecap="round" />
</clipPath>
<path style="stroke: none; stroke-width: 1; stroke-dasharray: none; stroke-linecap: butt; stroke-dashoffset: 0; stroke-linejoin: miter; stroke-miterlimit: 4; fill: rgb(255,255,255); fill-rule: nonzero; opacity: 1;"  transform=" translate(-3.81, 11.07)" d="m 0 0 l 3.276 -1.367 l 3.417 -13.102 l 4.151 9.944 l 3.507 -1.463 l -6.741 -16.151 l -3.022 1.262 l -3.536 13.53 l -4.284 -10.266 l -3.508 1.463 z" stroke-linecap="round" />
</g>
		<g transform="matrix(1.33 0 0 -1.33 101.97 -162.7)" id="path140" clip-path="url(#CLIPPATH_39)"  >
<clipPath id="CLIPPATH_39" >
	<path transform="matrix(1 0 0 1 -76.47 -122.02) translate(-252, -252)" id="path14" d="M 0 504 H 504 V 0 H 0 Z" stroke-linecap="round" />
</clipPath>
<path style="stroke: none; stroke-width: 1; stroke-dasharray: none; stroke-linecap: butt; stroke-dashoffset: 0; stroke-linejoin: miter; stroke-miterlimit: 4; fill: rgb(255,255,255); fill-rule: nonzero; opacity: 1;"  transform=" translate(-0.96, 10.95)" d="m 0 0 l 11.199 -6.994 l -1.814 -2.905 l -7.954 4.966 l -1.881 -3.011 l 6.999 -4.371 l -1.815 -2.906 l -6.999 4.371 l -1.947 -3.119 l 8.061 -5.032 l -1.816 -2.905 l -11.304 7.058 z" stroke-linecap="round" />
</g>
		<g transform="matrix(1.33 0 0 -1.33 124.46 -144.67)" id="path144" clip-path="url(#CLIPPATH_40)"  >
<clipPath id="CLIPPATH_40" >
	<path transform="matrix(1 0 0 1 -93.34 -108.5) translate(-252, -252)" id="path14" d="M 0 504 H 504 V 0 H 0 Z" stroke-linecap="round" />
</clipPath>
<path style="stroke: none; stroke-width: 1; stroke-dasharray: none; stroke-linecap: butt; stroke-dashoffset: 0; stroke-linejoin: miter; stroke-miterlimit: 4; fill: rgb(255,255,255); fill-rule: nonzero; opacity: 1;"  transform=" translate(1.65, 0.07)" d="m 0 0 c 1.417 -1.228 2.884 -1.176 3.85 -0.061 l 0.033 0.038 c 1.08 1.246 0.768 2.642 -0.649 3.87 L 0.344 6.352 L -2.947 2.555 Z M -0.289 11.499 L 5.756 6.26 C 7.437 4.803 8.331 3.2 8.447 1.578 C 8.545 0.203 8.041 -1.18 6.961 -2.426 L 6.928 -2.465 C 5.078 -4.599 2.763 -4.941 0.541 -4.107 l -0.862 -7.523 l -3.401 2.947 l 0.834 6.687 l -2.286 1.982 l -3.667 -4.232 l -2.909 2.521 z" stroke-linecap="round" />
</g>
		<g transform="matrix(1.33 0 0 -1.33 146.2 -124.21)" id="path148" clip-path="url(#CLIPPATH_41)"  >
<clipPath id="CLIPPATH_41" >
	<path transform="matrix(1 0 0 1 -109.65 -93.16) translate(-252, -252)" id="path14" d="M 0 504 H 504 V 0 H 0 Z" stroke-linecap="round" />
</clipPath>
<path style="stroke: none; stroke-width: 1; stroke-dasharray: none; stroke-linecap: butt; stroke-dashoffset: 0; stroke-linejoin: miter; stroke-miterlimit: 4; fill: rgb(255,255,255); fill-rule: nonzero; opacity: 1;"  transform=" translate(-9.26, 1.51)" d="M 0 0 L 3.551 0.036 C 3.583 -2.006 4.025 -3.797 5.323 -5.319 C 6.345 -6.518 7.437 -6.836 8.217 -6.17 l 0.038 0.031 c 0.742 0.633 0.733 1.414 -0.594 4.127 c -1.601 3.268 -2.336 5.631 0.31 7.886 l 0.038 0.032 c 2.416 2.061 5.669 1.482 7.988 -1.239 c 1.654 -1.94 2.457 -4.115 2.524 -6.391 l -3.504 -0.359 c -0.188 1.877 -0.683 3.46 -1.64 4.582 c -0.957 1.122 -1.974 1.274 -2.62 0.724 L 10.719 3.189 c -0.876 -0.746 -0.675 -1.56 0.698 -4.365 c 1.6 -3.302 1.927 -5.651 -0.395 -7.631 L 10.984 -8.838 C 8.339 -11.094 5.136 -10.342 2.687 -7.469 C 0.967 -5.451 -0.064 -2.814 0 0" stroke-linecap="round" />
</g>
		<g transform="matrix(1.33 0 0 -1.33 0.01 0.07)" id="path152" clip-path="url(#CLIPPATH_42)"  >
<clipPath id="CLIPPATH_42" >
	<path transform="matrix(1 0 0 1 -0.01 0.05) translate(-252, -252)" id="path14" d="M 0 504 H 504 V 0 H 0 Z" stroke-linecap="round" />
</clipPath>
<path style="stroke: none; stroke-width: 1; stroke-dasharray: none; stroke-linecap: butt; stroke-dashoffset: 0; stroke-linejoin: miter; stroke-miterlimit: 4; fill: rgb(255,255,255); fill-rule: nonzero; opacity: 1;"  transform=" translate(0, 52.17)" d="m 0 0 c 16.906 0.13 36.262 -2.626 56.071 -11.297 c 2.649 4.786 3.327 6.901 3.327 6.901 C 37.742 4.208 17.463 7.153 -0.002 7.229 C -17.466 7.153 -37.745 4.208 -59.401 -4.396 c 0 0 0.966 -2.606 3.327 -6.901 C -36.266 -2.626 -16.909 0.13 -0.003 0 Z m -16.748 -17.687 c -15.733 -0.012 -20.727 -1.756 -21.45 -8.877 c 0 0 -10.632 3.979 -15.989 12.061 c 20.913 9.734 41.931 10.172 41.931 10.172 L 0.008 -19.33 L -0.021 -19.332 L 12.244 -4.334 c 0 0 21.017 -0.437 41.932 -10.172 c -5.361 -8.082 -15.989 -12.06 -15.989 -12.06 c -0.724 7.12 -5.718 8.865 -21.561 8.865 l -16.618 -93.87 z" stroke-linecap="round" />
</g>
</g>
</g>
</svg>